# xmcd
#
# Track frame offsets: 
#        150
#        2332
#        12801
#        25241
#        37106
#        49796
#        61878
#        72099
#        85472
#        100883
#        115649
#        127038
#        141632
#        157560
#        165073
#        175969
#        187541
#        198451
#        210330
#        218443
#        229482
#        244100
#        256728
#        267234
#        277336
#        286783
#
# Disc length: 3978 seconds
#
# Revision: 0
# Processed by: cddbd v1.5.2PL0 Copyright (c) Steve Scherf et al.
# Submitted via: ExactAudioCopy v1.3
#
DISCID=5c0f881a
DTITLE=Don Reno and Red Smiley - CD2_Reno and Smiley
DYEAR=2010
DGENRE=Bluegrass
TTITLE0=Spoken Intro
TTITLE1=I Don't Blame You
TTITLE2=There Ain't Nobody Gonna Miss Me
TTITLE3=Forever
TTITLE4=Tragic Romance
TTITLE5=Down In Nashville Tennessee
TTITLE6=Things Are Gonna Be Different
TTITLE7=Sundown And Sorrow
TTITLE8=Too Many Tear Drops
TTITLE9=It's Enough To Make Anyone Cry
TTITLE10=(I Can See That) You're Living A Life
TTITLE11=The Road Of Broken Hearts
TTITLE12=Good Bye, Sweetheart, Good Bye
TTITLE13=Talking Tribute To Cowboy Copas
TTITLE14=Little Mountain Road
TTITLE15=A Lonely Road When You're All Alone
TTITLE16=Brand New Road
TTITLE17=Blue Is The Way That I Feel
TTITLE18=Open Road
TTITLE19=Cross Road
TTITLE20=I Know Your Burdens Are Greater Than Mine
TTITLE21=The Last Mile (Trio with Mack Magaha)
TTITLE22=Road Runner (Instrumental)
TTITLE23=Jacknif-in' (Instrumental)
TTITLE24=Interstate 81 (Instrumental)
TTITLE25=Sandy Road (Instrumental)
EXTD=
EXTT0=
EXTT1=
EXTT2=
EXTT3=
EXTT4=
EXTT5=
EXTT6=
EXTT7=
EXTT8=
EXTT9=
EXTT10=
EXTT11=
EXTT12=
EXTT13=
EXTT14=
EXTT15=
EXTT16=
EXTT17=
EXTT18=
EXTT19=
EXTT20=
EXTT21=
EXTT22=
EXTT23=
EXTT24=
EXTT25=
PLAYORDER=
